<?xml version="1.0" encoding="utf-8"?>
<!-- Generator: Adobe Illustrator 25.2.3, SVG Export Plug-In . SVG Version: 6.00 Build 0)  -->
<svg version="1.1" id="レイヤー_1" xmlns="http://www.w3.org/2000/svg" xmlns:xlink="http://www.w3.org/1999/xlink" x="0px"
	 y="0px" width="300px" height="300px" viewBox="0 0 300 300" style="enable-background:new 0 0 300 300;" xml:space="preserve">
<style type="text/css">
	.st0{fill:none;stroke:#333333;stroke-width:8;stroke-linecap:round;stroke-linejoin:round;stroke-miterlimit:10;}
	.st1{fill:#333333;}
	.st2{fill:#FFFFFF;}
</style>
<g>
	<rect x="59.03" y="74" class="st0" width="182.63" height="152"/>
	<g>
		<rect x="58.34" y="75.75" class="st1" width="182" height="29"/>
	</g>
	<circle class="st2" cx="149.34" cy="89.25" r="5"/>
	<rect x="81" y="124" class="st1" width="18" height="18"/>
	<rect x="110.5" y="124" class="st1" width="18" height="18"/>
	<rect x="140" y="124" class="st1" width="18" height="18"/>
	<rect x="169.5" y="124" class="st1" width="18" height="18"/>
	<rect x="199" y="124" class="st1" width="18" height="18"/>
	<rect x="81" y="154.49" class="st1" width="18" height="18"/>
	<rect x="110.7" y="154.49" class="st1" width="18" height="18"/>
	<rect x="140.2" y="154.49" class="st1" width="18" height="18"/>
	<rect x="169.7" y="154.49" class="st1" width="18" height="18"/>
	<rect x="199.2" y="154.49" class="st1" width="18" height="18"/>
	<rect x="81" y="184.98" class="st1" width="18" height="18"/>
	<rect x="110.7" y="184.98" class="st1" width="18" height="18"/>
	<rect x="140.2" y="184.98" class="st1" width="18" height="18"/>
	<rect x="169.7" y="184.98" class="st1" width="18" height="18"/>
	<rect x="199.2" y="184.98" class="st1" width="18" height="18"/>
</g>
</svg>
